<?xml version="1.0" encoding="UTF-8" standalone="no"?>
<svg width="24px" height="18px" viewBox="0 0 24 18" version="1.1" xmlns="http://www.w3.org/2000/svg" xmlns:xlink="http://www.w3.org/1999/xlink">
    <!-- Generator: Sketch 3.6.1 (26313) - http://www.bohemiancoding.com/sketch -->
    <title>猴头</title>
    <desc>Created with Sketch.</desc>
    <defs></defs>
    <g id="Index-&amp;-Login" stroke="none" stroke-width="1" fill="none" fill-rule="evenodd">
        <path d="M22.2157904,7.42730848 C21.5742619,7.42730848 21.0120185,7.83622887 20.6976888,8.44953515 C19.628228,6.11909021 17.4035131,3.96003212 14.6539784,3.07099072 C13.1703421,2.47611633 12.1285424,1.33437965 11.9998521,0 C11.8710139,1.33437965 10.8292142,2.47611633 9.34572573,3.07099072 C6.59619106,3.96003212 4.37147612,6.11909021 3.30201541,8.44953515 C2.98768567,7.83622887 2.42544222,7.42730848 1.78391371,7.42730848 C0.798767334,7.42730848 1.77635684e-15,8.39111795 1.77635684e-15,9.57982622 C1.77635684e-15,10.7686831 0.798619414,11.7324926 1.78391371,11.7324926 C2.08359938,11.7324926 2.36583051,11.6428601 2.61374422,11.4852972 C2.69850231,15.3454403 6.86629276,17.8511369 12,17.8578259 C17.1337072,17.8511369 21.3014977,15.3454403 21.3862558,11.4852972 C21.6341695,11.6428601 21.9164006,11.7324926 22.2160863,11.7324926 C23.2012327,11.7324926 24,10.7686831 24,9.57982622 C23.9995562,8.39111795 23.2009368,7.42730848 22.2157904,7.42730848 L22.2157904,7.42730848 Z M2.59481048,10.2525902 C2.51138367,10.5625135 2.13980894,10.6945096 1.76512789,10.5475004 C1.39029892,10.4004913 1.15407088,10.0302184 1.23749769,9.72029506 C1.3209245,9.41037174 1.69249923,9.27837563 2.0673282,9.42538482 C2.44200924,9.572394 2.67823729,9.94266689 2.59481048,10.2525902 L2.59481048,10.2525902 Z M11.9997042,16.7832764 C7.88220647,16.7767361 4.54764869,14.8268205 4.54764869,12.035281 C4.54764869,11.9768638 4.54971957,11.9188925 4.55253005,11.8610699 C4.55341757,11.8420434 4.554453,11.823017 4.55578428,11.8039905 C4.55829892,11.7644511 4.561849,11.725209 4.56569492,11.6861156 C4.57102003,11.6336442 4.57708475,11.5811727 4.58477658,11.5291472 C4.58551618,11.5239447 4.58625578,11.5187421 4.58699538,11.5136882 C4.66983051,10.9650422 4.88209553,10.127729 5.2026379,9.6452297 C5.97256086,8.52593831 7.34599692,7.78033863 8.91291217,7.78033863 C10.1190508,7.78033863 11.209812,8.22300128 11.9998521,8.93693973 C12.7898921,8.22300128 13.8806533,7.78033863 15.086792,7.78033863 C16.6537072,7.78033863 18.0269954,8.52593831 18.7970663,9.6452297 C19.1176086,10.127729 19.3297257,10.9650422 19.4127088,11.5136882 C19.4134484,11.5188908 19.414188,11.5239447 19.4149276,11.5291472 C19.4226194,11.5811727 19.4286841,11.6336442 19.4340092,11.6861156 C19.4378552,11.7253577 19.4414052,11.7645998 19.4439199,11.8039905 C19.4451032,11.823017 19.4461387,11.8420434 19.4471741,11.8610699 C19.4499846,11.9188925 19.4520555,11.9768638 19.4520555,12.035281 C19.4519076,14.8268205 16.1173498,16.7768847 11.9997042,16.7832764 L11.9997042,16.7832764 Z M22.2345763,10.5475004 C21.8597473,10.6945096 21.4883205,10.5623649 21.4047458,10.2525902 C21.321171,9.94281554 21.557547,9.572394 21.932376,9.42538482 C22.3072049,9.27837563 22.6786317,9.41052039 22.7622065,9.72029506 C22.8454854,10.0302184 22.6092573,10.4006399 22.2345763,10.5475004 Z M16.5853683,10.9304081 C16.8013669,10.9304081 16.9764684,10.7191109 16.9764684,10.4584625 C16.9764684,10.1978142 16.8013669,9.98651695 16.5853683,9.98651695 C16.3693696,9.98651695 16.1942681,10.1978142 16.1942681,10.4584625 C16.1942681,10.7191109 16.3693696,10.9304081 16.5853683,10.9304081 Z M7.2967396,10.9304081 C7.51273825,10.9304081 7.68783975,10.7191109 7.68783975,10.4584625 C7.68783975,10.1978142 7.51273825,9.98651695 7.2967396,9.98651695 C7.08074095,9.98651695 6.90563945,10.1978142 6.90563945,10.4584625 C6.90563945,10.7191109 7.08074095,10.9304081 7.2967396,10.9304081 Z" id="猴头" fill="#2D3238"></path>
    </g>
</svg>
