<?xml version="1.0" encoding="UTF-8" standalone="no"?>
<svg viewbox="0 0 19 19"><path fill="#828282" d="M17.5875008,6.87995254 C17.079624,6.87995254 16.6345146,7.20368119 16.3856703,7.68921533 C15.5390139,5.84427975 13.7777812,4.13502543 11.6010663,3.43120098 C10.4265208,2.96025876 9.60176271,2.05638389 9.4998829,1 C9.39788598,2.05638389 8.57312789,2.96025876 7.39869954,3.43120098 C5.22198459,4.13502543 3.46075193,5.84427975 2.61409553,7.68921533 C2.36525116,7.20368119 1.92014176,6.87995254 1.41226502,6.87995254 C0.632357473,6.87995254 0,7.64296838 0,8.58402909 C0,9.52520748 0.63224037,10.2882233 1.41226502,10.2882233 C1.64951618,10.2882233 1.87294915,10.2172643 2.06921418,10.0925269 C2.13631433,13.1484736 5.4358151,15.13215 9.5,15.1374455 C13.5641849,15.13215 16.8636857,13.1484736 16.9307858,10.0925269 C17.1270508,10.2172643 17.3504838,10.2882233 17.587735,10.2882233 C18.3676425,10.2882233 19,9.52520748 19,8.58402909 C18.9996487,7.64296838 18.3674083,6.87995254 17.5875008,6.87995254 L17.5875008,6.87995254 Z M2.05422496,9.11663391 C1.98817874,9.36198987 1.69401541,9.46648679 1.39739291,9.35010452 C1.10065331,9.23372225 0.913639445,8.94058954 0.97968567,8.69523359 C1.0457319,8.44987763 1.33989522,8.34538071 1.63663482,8.46176298 C1.93325732,8.57814525 2.12027119,8.87127796 2.05422496,9.11663391 L2.05422496,9.11663391 Z M9.49976579,14.2867605 C6.24008012,14.2815827 3.60022188,12.7378995 3.60022188,10.5279308 C3.60022188,10.4816838 3.60186133,10.4357899 3.60408629,10.3900137 C3.60478891,10.3749511 3.60560863,10.3598884 3.60666256,10.3448258 C3.60865331,10.3135238 3.61146379,10.2824572 3.61450847,10.2515082 C3.61872419,10.2099683 3.62352542,10.1684284 3.62961479,10.1272416 C3.63020031,10.1231229 3.63078582,10.1190042 3.63137134,10.1150032 C3.69694915,9.68065842 3.8649923,9.01778547 4.11875501,8.63580684 C4.72827735,7.74970116 5.81558089,7.15943475 7.05605547,7.15943475 C8.01091525,7.15943475 8.87443451,7.50987601 9.4998829,8.07507729 C10.1253313,7.50987601 10.9888505,7.15943475 11.9437103,7.15943475 C13.1841849,7.15943475 14.2713713,7.74970116 14.8810108,8.63580684 C15.1347735,9.01778547 15.3026995,9.68065842 15.3683945,10.1150032 C15.36898,10.1191219 15.3695655,10.1231229 15.370151,10.1272416 C15.3762404,10.1684284 15.3810416,10.2099683 15.3852573,10.2515082 C15.388302,10.2825748 15.3911125,10.3136415 15.3931032,10.3448258 C15.3940401,10.3598884 15.3948598,10.3749511 15.3956795,10.3900137 C15.3979045,10.4357899 15.3995439,10.4816838 15.3995439,10.5279308 C15.3994268,12.7378995 12.7595686,14.2817004 9.49976579,14.2867605 L9.49976579,14.2867605 Z M17.6023729,9.35010452 C17.3056333,9.46648679 17.0115871,9.36187219 16.9454237,9.11663391 C16.8792604,8.87139563 17.0663914,8.57814525 17.363131,8.46176298 C17.6598706,8.34538071 17.9539168,8.44999531 18.0200801,8.69523359 C18.0860092,8.94058954 17.8989954,9.23383992 17.6023729,9.35010452 Z M13.1300832,9.65323974 C13.3010821,9.65323974 13.4397042,9.48596277 13.4397042,9.27961617 C13.4397042,9.07326956 13.3010821,8.90599259 13.1300832,8.90599259 C12.9590843,8.90599259 12.8204622,9.07326956 12.8204622,9.27961617 C12.8204622,9.48596277 12.9590843,9.65323974 13.1300832,9.65323974 Z M5.77658552,9.65323974 C5.94758445,9.65323974 6.08620647,9.48596277 6.08620647,9.27961617 C6.08620647,9.07326956 5.94758445,8.90599259 5.77658552,8.90599259 C5.60558658,8.90599259 5.46696456,9.07326956 5.46696456,9.27961617 C5.46696456,9.48596277 5.60558658,9.65323974 5.77658552,9.65323974 Z"></path></svg>
